<svg xmlns="http://www.w3.org/2000/svg" viewBox="0 0 32 32" fill="white">
  <path d="M16 0C7.164 0 0 7.164 0 16c0 2.821.738 5.543 2.143 7.957L.063 32l8.264-2.057A15.883 15.883 0 0 0 16 32c8.836 0 16-7.164 16-16S24.836 0 16 0Zm0 29.333a13.29 13.29 0 0 1-6.767-1.829l-.485-.286-4.912 1.223 1.297-4.77-.315-.493A13.287 13.287 0 1 1 16 29.333Zm7.38-9.975c-.404-.202-2.39-1.181-2.758-1.314-.369-.135-.638-.202-.906.202s-1.037 1.314-1.273 1.586c-.236.27-.469.303-.873.101-.404-.202-1.705-.63-3.246-2.008-1.2-1.071-2.008-2.39-2.243-2.794-.236-.404-.025-.623.178-.824.183-.182.404-.472.607-.708.202-.236.269-.404.404-.674.135-.27.067-.505-.033-.707-.101-.202-.906-2.184-1.242-2.993-.326-.787-.658-.68-.906-.69h-.775c-.27 0-.707.101-1.077.505-.37.404-1.414 1.38-1.414 3.37 0 1.991 1.45 3.914 1.653 4.183.202.27 2.852 4.348 6.913 6.103.967.417 1.724.666 2.312.851.972.31 1.857.266 2.556.161.78-.117 2.39-.978 2.73-1.921.337-.943.337-1.75.236-1.921-.101-.172-.369-.27-.773-.472Z"/>
</svg>